<svg xmlns="http://www.w3.org/2000/svg" width="1100" height="640" viewBox="0 0 1100 640">
<rect width="100%" height="100%" fill="#0f172a"/>
<rect x="20" y="20" width="1060" height="600" rx="16" fill="#111827" stroke="#334155"/>
<text x="40" y="52" fill="#e5e7eb" font-family="Segoe UI, Arial" font-size="26" font-weight="700">ChaosOps RL Progress (Auto Benchmark)</text>
<text x="40" y="78" fill="#94a3b8" font-family="Segoe UI, Arial" font-size="14">Task3 repeated episodes: baseline policy then RL policy</text>
<line x1="70" y1="70" x2="70" y2="520" stroke="#475569"/>
<line x1="70" y1="520" x2="1060" y2="520" stroke="#475569"/>
<line x1="70" y1="520.00" x2="1060" y2="520.00" stroke="#1f2937"/>
<text x="28" y="525.00" fill="#94a3b8" font-family="Segoe UI, Arial" font-size="12">0.0</text>
<line x1="70" y1="430.00" x2="1060" y2="430.00" stroke="#1f2937"/>
<text x="28" y="435.00" fill="#94a3b8" font-family="Segoe UI, Arial" font-size="12">0.2</text>
<line x1="70" y1="340.00" x2="1060" y2="340.00" stroke="#1f2937"/>
<text x="28" y="345.00" fill="#94a3b8" font-family="Segoe UI, Arial" font-size="12">0.4</text>
<line x1="70" y1="250.00" x2="1060" y2="250.00" stroke="#1f2937"/>
<text x="28" y="255.00" fill="#94a3b8" font-family="Segoe UI, Arial" font-size="12">0.6</text>
<line x1="70" y1="160.00" x2="1060" y2="160.00" stroke="#1f2937"/>
<text x="28" y="165.00" fill="#94a3b8" font-family="Segoe UI, Arial" font-size="12">0.8</text>
<line x1="70" y1="70.00" x2="1060" y2="70.00" stroke="#1f2937"/>
<text x="28" y="75.00" fill="#94a3b8" font-family="Segoe UI, Arial" font-size="12">1.0</text>
<rect x="56.50" y="70.00" width="27.00" height="450.00" fill="#64748b" opacity="0.35"/>
<rect x="146.50" y="70.00" width="27.00" height="450.00" fill="#64748b" opacity="0.35"/>
<rect x="236.50" y="70.00" width="27.00" height="450.00" fill="#64748b" opacity="0.35"/>
<rect x="326.50" y="70.00" width="27.00" height="450.00" fill="#64748b" opacity="0.35"/>
<rect x="416.50" y="70.00" width="27.00" height="450.00" fill="#64748b" opacity="0.35"/>
<rect x="506.50" y="70.00" width="27.00" height="450.00" fill="#64748b" opacity="0.35"/>
<rect x="596.50" y="220.00" width="27.00" height="300.00" fill="#0ea5e9" opacity="0.35"/>
<rect x="686.50" y="220.00" width="27.00" height="300.00" fill="#0ea5e9" opacity="0.35"/>
<rect x="776.50" y="220.00" width="27.00" height="300.00" fill="#0ea5e9" opacity="0.35"/>
<rect x="866.50" y="220.00" width="27.00" height="300.00" fill="#0ea5e9" opacity="0.35"/>
<rect x="956.50" y="220.00" width="27.00" height="300.00" fill="#0ea5e9" opacity="0.35"/>
<rect x="1046.50" y="220.00" width="27.00" height="300.00" fill="#0ea5e9" opacity="0.35"/>
<polyline fill="none" stroke="#f59e0b" stroke-width="3" points="70.00,250.00 160.00,250.00 250.00,250.00 340.00,250.00 430.00,250.00 520.00,250.00"/>
<polyline fill="none" stroke="#22c55e" stroke-width="3" points="610.00,115.00 700.00,115.00 790.00,115.00 880.00,115.00 970.00,115.00 1060.00,115.00"/>
<circle cx="70.00" cy="250.00" r="4" fill="#f59e0b"/>
<circle cx="160.00" cy="250.00" r="4" fill="#f59e0b"/>
<circle cx="250.00" cy="250.00" r="4" fill="#f59e0b"/>
<circle cx="340.00" cy="250.00" r="4" fill="#f59e0b"/>
<circle cx="430.00" cy="250.00" r="4" fill="#f59e0b"/>
<circle cx="520.00" cy="250.00" r="4" fill="#f59e0b"/>
<circle cx="610.00" cy="115.00" r="4" fill="#22c55e"/>
<circle cx="700.00" cy="115.00" r="4" fill="#22c55e"/>
<circle cx="790.00" cy="115.00" r="4" fill="#22c55e"/>
<circle cx="880.00" cy="115.00" r="4" fill="#22c55e"/>
<circle cx="970.00" cy="115.00" r="4" fill="#22c55e"/>
<circle cx="1060.00" cy="115.00" r="4" fill="#22c55e"/>
<text x="70.00" y="540" text-anchor="middle" fill="#94a3b8" font-family="Segoe UI, Arial" font-size="11">E1</text>
<text x="160.00" y="540" text-anchor="middle" fill="#94a3b8" font-family="Segoe UI, Arial" font-size="11">E2</text>
<text x="250.00" y="540" text-anchor="middle" fill="#94a3b8" font-family="Segoe UI, Arial" font-size="11">E3</text>
<text x="340.00" y="540" text-anchor="middle" fill="#94a3b8" font-family="Segoe UI, Arial" font-size="11">E4</text>
<text x="430.00" y="540" text-anchor="middle" fill="#94a3b8" font-family="Segoe UI, Arial" font-size="11">E5</text>
<text x="520.00" y="540" text-anchor="middle" fill="#94a3b8" font-family="Segoe UI, Arial" font-size="11">E6</text>
<text x="610.00" y="540" text-anchor="middle" fill="#94a3b8" font-family="Segoe UI, Arial" font-size="11">E7</text>
<text x="700.00" y="540" text-anchor="middle" fill="#94a3b8" font-family="Segoe UI, Arial" font-size="11">E8</text>
<text x="790.00" y="540" text-anchor="middle" fill="#94a3b8" font-family="Segoe UI, Arial" font-size="11">E9</text>
<text x="880.00" y="540" text-anchor="middle" fill="#94a3b8" font-family="Segoe UI, Arial" font-size="11">E10</text>
<text x="970.00" y="540" text-anchor="middle" fill="#94a3b8" font-family="Segoe UI, Arial" font-size="11">E11</text>
<text x="1060.00" y="540" text-anchor="middle" fill="#94a3b8" font-family="Segoe UI, Arial" font-size="11">E12</text>
<rect x="760" y="34" width="12" height="12" fill="#f59e0b"/>
<text x="778" y="45" fill="#e5e7eb" font-family="Segoe UI, Arial" font-size="12">Baseline score</text>
<rect x="900" y="34" width="12" height="12" fill="#22c55e"/>
<text x="918" y="45" fill="#e5e7eb" font-family="Segoe UI, Arial" font-size="12">RL score</text>
<rect x="760" y="54" width="12" height="12" fill="#0ea5e9" opacity="0.35"/>
<text x="778" y="65" fill="#e5e7eb" font-family="Segoe UI, Arial" font-size="12">Steps per episode</text>
<rect x="40" y="530" width="1020" height="70" rx="10" fill="#0b1220" stroke="#1f2937"/>
<text x="58" y="557" fill="#cbd5e1" font-family="Segoe UI, Arial" font-size="14">Baseline mean score: 0.60</text>
<text x="330" y="557" fill="#cbd5e1" font-family="Segoe UI, Arial" font-size="14">RL mean score: 0.90</text>
<text x="560" y="557" fill="#cbd5e1" font-family="Segoe UI, Arial" font-size="14">Improvement: +0.30</text>
<text x="58" y="582" fill="#94a3b8" font-family="Segoe UI, Arial" font-size="13">Generated automatically by scripts/auto_run_and_chart.py</text>
</svg>